<mxfile host="65bd71144e">
    <diagram id="uP_zvnIh-xmorhRnee6C" name="Page-1">
        <mxGraphModel dx="1053" dy="560" grid="1" gridSize="10" guides="1" tooltips="1" connect="1" arrows="1" fold="1" page="1" pageScale="1" pageWidth="850" pageHeight="1100" math="0" shadow="0">
            <root>
                <mxCell id="0"/>
                <mxCell id="1" parent="0"/>
                <mxCell id="2" value="" style="rounded=0;whiteSpace=wrap;html=1;" parent="1" vertex="1">
                    <mxGeometry x="100" y="40" width="150" height="810" as="geometry"/>
                </mxCell>
                <mxCell id="4" value="7:30 AM - 8:00 AM" style="rounded=0;whiteSpace=wrap;html=1;" parent="1" vertex="1">
                    <mxGeometry x="100" y="40" width="150" height="30" as="geometry"/>
                </mxCell>
                <mxCell id="5" value="8:00 AM - 8:30 AM" style="rounded=0;whiteSpace=wrap;html=1;" parent="1" vertex="1">
                    <mxGeometry x="100" y="70" width="150" height="30" as="geometry"/>
                </mxCell>
                <mxCell id="7" value="8:30 AM - 9:00 AM" style="rounded=0;whiteSpace=wrap;html=1;" parent="1" vertex="1">
                    <mxGeometry x="100" y="100" width="150" height="30" as="geometry"/>
                </mxCell>
                <mxCell id="8" value="10:30 AM - 11:00 AM" style="rounded=0;whiteSpace=wrap;html=1;" parent="1" vertex="1">
                    <mxGeometry x="100" y="220" width="150" height="30" as="geometry"/>
                </mxCell>
                <mxCell id="9" value="11:00 AM - 11:30 AM" style="rounded=0;whiteSpace=wrap;html=1;" parent="1" vertex="1">
                    <mxGeometry x="100" y="250" width="150" height="30" as="geometry"/>
                </mxCell>
                <mxCell id="10" value="11:30 AM - 12:00 PM" style="rounded=0;whiteSpace=wrap;html=1;" parent="1" vertex="1">
                    <mxGeometry x="100" y="280" width="150" height="30" as="geometry"/>
                </mxCell>
                <mxCell id="11" value="12:00 PM - 12:30 PM" style="rounded=0;whiteSpace=wrap;html=1;" parent="1" vertex="1">
                    <mxGeometry x="100" y="310" width="150" height="30" as="geometry"/>
                </mxCell>
                <mxCell id="12" value="12:30 PM - 1:00 PM" style="rounded=0;whiteSpace=wrap;html=1;" parent="1" vertex="1">
                    <mxGeometry x="100" y="340" width="150" height="30" as="geometry"/>
                </mxCell>
                <mxCell id="13" value="1:00 PM - 1:30 PM" style="rounded=0;whiteSpace=wrap;html=1;" parent="1" vertex="1">
                    <mxGeometry x="100" y="370" width="150" height="30" as="geometry"/>
                </mxCell>
                <mxCell id="14" value="1:30 PM - 2:00 PM" style="rounded=0;whiteSpace=wrap;html=1;" parent="1" vertex="1">
                    <mxGeometry x="100" y="400" width="150" height="30" as="geometry"/>
                </mxCell>
                <mxCell id="15" value="2:00 PM - 2:30 PM" style="rounded=0;whiteSpace=wrap;html=1;" parent="1" vertex="1">
                    <mxGeometry x="100" y="430" width="150" height="30" as="geometry"/>
                </mxCell>
                <mxCell id="16" value="2:30 PM - 3:00 PM" style="rounded=0;whiteSpace=wrap;html=1;" parent="1" vertex="1">
                    <mxGeometry x="100" y="460" width="150" height="30" as="geometry"/>
                </mxCell>
                <mxCell id="17" value="3:00 PM - 3:30 PM" style="rounded=0;whiteSpace=wrap;html=1;" parent="1" vertex="1">
                    <mxGeometry x="100" y="490" width="150" height="30" as="geometry"/>
                </mxCell>
                <mxCell id="18" value="3:30 PM - 4:00 PM" style="rounded=0;whiteSpace=wrap;html=1;" parent="1" vertex="1">
                    <mxGeometry x="100" y="520" width="150" height="30" as="geometry"/>
                </mxCell>
                <mxCell id="19" value="4:00 PM - 4:30 PM" style="rounded=0;whiteSpace=wrap;html=1;" parent="1" vertex="1">
                    <mxGeometry x="100" y="550" width="150" height="30" as="geometry"/>
                </mxCell>
                <mxCell id="20" value="4:30 PM - 5:00 PM" style="rounded=0;whiteSpace=wrap;html=1;" parent="1" vertex="1">
                    <mxGeometry x="100" y="580" width="150" height="30" as="geometry"/>
                </mxCell>
                <mxCell id="23" value="5:00 PM - 5:30 PM" style="rounded=0;whiteSpace=wrap;html=1;" parent="1" vertex="1">
                    <mxGeometry x="100" y="610" width="150" height="30" as="geometry"/>
                </mxCell>
                <mxCell id="24" value="10:00 AM - 10:30 AM" style="rounded=0;whiteSpace=wrap;html=1;" parent="1" vertex="1">
                    <mxGeometry x="100" y="190" width="150" height="30" as="geometry"/>
                </mxCell>
                <mxCell id="25" value="5:30 PM - 6:00 PM" style="rounded=0;whiteSpace=wrap;html=1;" parent="1" vertex="1">
                    <mxGeometry x="100" y="640" width="150" height="30" as="geometry"/>
                </mxCell>
                <mxCell id="26" value="6:00 PM - 6:30 PM" style="rounded=0;whiteSpace=wrap;html=1;" parent="1" vertex="1">
                    <mxGeometry x="100" y="670" width="150" height="30" as="geometry"/>
                </mxCell>
                <mxCell id="27" value="6:30 PM - 7:00 PM" style="rounded=0;whiteSpace=wrap;html=1;" parent="1" vertex="1">
                    <mxGeometry x="100" y="700" width="150" height="30" as="geometry"/>
                </mxCell>
                <mxCell id="28" value="7:00 PM - 7:30 PM" style="rounded=0;whiteSpace=wrap;html=1;" parent="1" vertex="1">
                    <mxGeometry x="100" y="730" width="150" height="30" as="geometry"/>
                </mxCell>
                <mxCell id="30" value="7:30 PM - 8:00 PM" style="rounded=0;whiteSpace=wrap;html=1;" parent="1" vertex="1">
                    <mxGeometry x="100" y="760" width="150" height="30" as="geometry"/>
                </mxCell>
                <mxCell id="31" value="8:00 PM - 8:30 PM" style="rounded=0;whiteSpace=wrap;html=1;" parent="1" vertex="1">
                    <mxGeometry x="100" y="790" width="150" height="30" as="geometry"/>
                </mxCell>
                <mxCell id="32" value="8:30 PM - 9:00 PM" style="rounded=0;whiteSpace=wrap;html=1;" parent="1" vertex="1">
                    <mxGeometry x="100" y="820" width="150" height="30" as="geometry"/>
                </mxCell>
                <mxCell id="35" value="" style="rounded=0;whiteSpace=wrap;html=1;fillColor=#f8cecc;strokeColor=#b85450;" parent="1" vertex="1">
                    <mxGeometry x="250" y="40" width="160" height="810" as="geometry"/>
                </mxCell>
                <mxCell id="36" value="Monday" style="text;html=1;align=center;verticalAlign=middle;whiteSpace=wrap;rounded=0;" parent="1" vertex="1">
                    <mxGeometry x="295" y="10" width="60" height="30" as="geometry"/>
                </mxCell>
                <mxCell id="37" value="" style="rounded=0;whiteSpace=wrap;html=1;" parent="1" vertex="1">
                    <mxGeometry x="250" y="40" width="160" height="30" as="geometry"/>
                </mxCell>
                <mxCell id="38" value="" style="rounded=0;whiteSpace=wrap;html=1;" parent="1" vertex="1">
                    <mxGeometry x="250" y="70" width="160" height="30" as="geometry"/>
                </mxCell>
                <mxCell id="40" value="" style="rounded=0;whiteSpace=wrap;html=1;" parent="1" vertex="1">
                    <mxGeometry x="250" y="130" width="160" height="30" as="geometry"/>
                </mxCell>
                <mxCell id="41" value="" style="rounded=0;whiteSpace=wrap;html=1;" parent="1" vertex="1">
                    <mxGeometry x="250" y="160" width="160" height="30" as="geometry"/>
                </mxCell>
                <mxCell id="42" value="" style="rounded=0;whiteSpace=wrap;html=1;" parent="1" vertex="1">
                    <mxGeometry x="250" y="190" width="160" height="30" as="geometry"/>
                </mxCell>
                <mxCell id="43" value="" style="rounded=0;whiteSpace=wrap;html=1;" parent="1" vertex="1">
                    <mxGeometry x="250" y="220" width="160" height="30" as="geometry"/>
                </mxCell>
                <mxCell id="44" value="" style="rounded=0;whiteSpace=wrap;html=1;" parent="1" vertex="1">
                    <mxGeometry x="250" y="250" width="160" height="30" as="geometry"/>
                </mxCell>
                <mxCell id="45" value="" style="rounded=0;whiteSpace=wrap;html=1;" parent="1" vertex="1">
                    <mxGeometry x="250" y="280" width="160" height="30" as="geometry"/>
                </mxCell>
                <mxCell id="46" value="" style="rounded=0;whiteSpace=wrap;html=1;" parent="1" vertex="1">
                    <mxGeometry x="250" y="310" width="160" height="30" as="geometry"/>
                </mxCell>
                <mxCell id="47" value="" style="rounded=0;whiteSpace=wrap;html=1;" parent="1" vertex="1">
                    <mxGeometry x="250" y="340" width="160" height="30" as="geometry"/>
                </mxCell>
                <mxCell id="48" value="" style="rounded=0;whiteSpace=wrap;html=1;" parent="1" vertex="1">
                    <mxGeometry x="250" y="370" width="160" height="30" as="geometry"/>
                </mxCell>
                <mxCell id="49" value="" style="rounded=0;whiteSpace=wrap;html=1;" parent="1" vertex="1">
                    <mxGeometry x="250" y="400" width="160" height="30" as="geometry"/>
                </mxCell>
                <mxCell id="50" value="" style="rounded=0;whiteSpace=wrap;html=1;" parent="1" vertex="1">
                    <mxGeometry x="250" y="430" width="160" height="30" as="geometry"/>
                </mxCell>
                <mxCell id="55" value="" style="rounded=0;whiteSpace=wrap;html=1;" parent="1" vertex="1">
                    <mxGeometry x="250" y="580" width="160" height="30" as="geometry"/>
                </mxCell>
                <mxCell id="56" value="" style="rounded=0;whiteSpace=wrap;html=1;" parent="1" vertex="1">
                    <mxGeometry x="250" y="610" width="160" height="30" as="geometry"/>
                </mxCell>
                <mxCell id="57" value="" style="rounded=0;whiteSpace=wrap;html=1;" parent="1" vertex="1">
                    <mxGeometry x="250" y="640" width="160" height="30" as="geometry"/>
                </mxCell>
                <mxCell id="58" value="" style="rounded=0;whiteSpace=wrap;html=1;" parent="1" vertex="1">
                    <mxGeometry x="250" y="670" width="160" height="30" as="geometry"/>
                </mxCell>
                <mxCell id="59" value="" style="rounded=0;whiteSpace=wrap;html=1;" parent="1" vertex="1">
                    <mxGeometry x="250" y="700" width="160" height="30" as="geometry"/>
                </mxCell>
                <mxCell id="60" value="" style="rounded=0;whiteSpace=wrap;html=1;" parent="1" vertex="1">
                    <mxGeometry x="250" y="730" width="160" height="30" as="geometry"/>
                </mxCell>
                <mxCell id="61" value="" style="rounded=0;whiteSpace=wrap;html=1;" parent="1" vertex="1">
                    <mxGeometry x="250" y="760" width="160" height="30" as="geometry"/>
                </mxCell>
                <mxCell id="62" value="" style="rounded=0;whiteSpace=wrap;html=1;" parent="1" vertex="1">
                    <mxGeometry x="250" y="790" width="160" height="30" as="geometry"/>
                </mxCell>
                <mxCell id="63" value="" style="rounded=0;whiteSpace=wrap;html=1;" parent="1" vertex="1">
                    <mxGeometry x="250" y="820" width="160" height="30" as="geometry"/>
                </mxCell>
                <mxCell id="64" value="" style="rounded=0;whiteSpace=wrap;html=1;fillColor=#f8cecc;strokeColor=#b85450;" parent="1" vertex="1">
                    <mxGeometry x="410" y="40" width="160" height="810" as="geometry"/>
                </mxCell>
                <mxCell id="65" value="Tuesday" style="text;html=1;align=center;verticalAlign=middle;whiteSpace=wrap;rounded=0;" parent="1" vertex="1">
                    <mxGeometry x="460" y="10" width="60" height="30" as="geometry"/>
                </mxCell>
                <mxCell id="66" value="" style="rounded=0;whiteSpace=wrap;html=1;" parent="1" vertex="1">
                    <mxGeometry x="410" y="40" width="160" height="30" as="geometry"/>
                </mxCell>
                <mxCell id="67" value="" style="rounded=0;whiteSpace=wrap;html=1;" parent="1" vertex="1">
                    <mxGeometry x="410" y="70" width="160" height="30" as="geometry"/>
                </mxCell>
                <mxCell id="68" value="" style="rounded=0;whiteSpace=wrap;html=1;" parent="1" vertex="1">
                    <mxGeometry x="410" y="100" width="160" height="30" as="geometry"/>
                </mxCell>
                <mxCell id="69" value="" style="rounded=0;whiteSpace=wrap;html=1;" parent="1" vertex="1">
                    <mxGeometry x="410" y="130" width="160" height="30" as="geometry"/>
                </mxCell>
                <mxCell id="70" value="" style="rounded=0;whiteSpace=wrap;html=1;" parent="1" vertex="1">
                    <mxGeometry x="410" y="160" width="160" height="30" as="geometry"/>
                </mxCell>
                <mxCell id="71" value="" style="rounded=0;whiteSpace=wrap;html=1;" parent="1" vertex="1">
                    <mxGeometry x="410" y="190" width="160" height="30" as="geometry"/>
                </mxCell>
                <mxCell id="72" value="" style="rounded=0;whiteSpace=wrap;html=1;" parent="1" vertex="1">
                    <mxGeometry x="410" y="220" width="160" height="30" as="geometry"/>
                </mxCell>
                <mxCell id="73" value="" style="rounded=0;whiteSpace=wrap;html=1;" parent="1" vertex="1">
                    <mxGeometry x="410" y="250" width="160" height="30" as="geometry"/>
                </mxCell>
                <mxCell id="74" value="" style="rounded=0;whiteSpace=wrap;html=1;" parent="1" vertex="1">
                    <mxGeometry x="410" y="280" width="160" height="30" as="geometry"/>
                </mxCell>
                <mxCell id="75" value="" style="rounded=0;whiteSpace=wrap;html=1;" parent="1" vertex="1">
                    <mxGeometry x="410" y="310" width="160" height="30" as="geometry"/>
                </mxCell>
                <mxCell id="76" value="" style="rounded=0;whiteSpace=wrap;html=1;" parent="1" vertex="1">
                    <mxGeometry x="410" y="340" width="160" height="30" as="geometry"/>
                </mxCell>
                <mxCell id="77" value="" style="rounded=0;whiteSpace=wrap;html=1;" parent="1" vertex="1">
                    <mxGeometry x="410" y="370" width="160" height="30" as="geometry"/>
                </mxCell>
                <mxCell id="78" value="" style="rounded=0;whiteSpace=wrap;html=1;" parent="1" vertex="1">
                    <mxGeometry x="410" y="400" width="160" height="30" as="geometry"/>
                </mxCell>
                <mxCell id="85" value="" style="rounded=0;whiteSpace=wrap;html=1;" parent="1" vertex="1">
                    <mxGeometry x="410" y="610" width="160" height="30" as="geometry"/>
                </mxCell>
                <mxCell id="86" value="" style="rounded=0;whiteSpace=wrap;html=1;" parent="1" vertex="1">
                    <mxGeometry x="410" y="640" width="160" height="30" as="geometry"/>
                </mxCell>
                <mxCell id="87" value="" style="rounded=0;whiteSpace=wrap;html=1;" parent="1" vertex="1">
                    <mxGeometry x="410" y="670" width="160" height="30" as="geometry"/>
                </mxCell>
                <mxCell id="88" value="" style="rounded=0;whiteSpace=wrap;html=1;" parent="1" vertex="1">
                    <mxGeometry x="410" y="700" width="160" height="30" as="geometry"/>
                </mxCell>
                <mxCell id="89" value="" style="rounded=0;whiteSpace=wrap;html=1;" parent="1" vertex="1">
                    <mxGeometry x="410" y="730" width="160" height="30" as="geometry"/>
                </mxCell>
                <mxCell id="90" value="" style="rounded=0;whiteSpace=wrap;html=1;" parent="1" vertex="1">
                    <mxGeometry x="410" y="760" width="160" height="30" as="geometry"/>
                </mxCell>
                <mxCell id="91" value="" style="rounded=0;whiteSpace=wrap;html=1;" parent="1" vertex="1">
                    <mxGeometry x="410" y="790" width="160" height="30" as="geometry"/>
                </mxCell>
                <mxCell id="92" value="" style="rounded=0;whiteSpace=wrap;html=1;" parent="1" vertex="1">
                    <mxGeometry x="410" y="820" width="160" height="30" as="geometry"/>
                </mxCell>
                <mxCell id="93" value="" style="rounded=0;whiteSpace=wrap;html=1;fillColor=#f8cecc;strokeColor=#b85450;" parent="1" vertex="1">
                    <mxGeometry x="570" y="40" width="160" height="810" as="geometry"/>
                </mxCell>
                <mxCell id="94" value="Wednesday" style="text;html=1;align=center;verticalAlign=middle;whiteSpace=wrap;rounded=0;" parent="1" vertex="1">
                    <mxGeometry x="620" y="10" width="60" height="30" as="geometry"/>
                </mxCell>
                <mxCell id="95" value="" style="rounded=0;whiteSpace=wrap;html=1;" parent="1" vertex="1">
                    <mxGeometry x="570" y="40" width="160" height="30" as="geometry"/>
                </mxCell>
                <mxCell id="96" value="" style="rounded=0;whiteSpace=wrap;html=1;" parent="1" vertex="1">
                    <mxGeometry x="570" y="70" width="160" height="30" as="geometry"/>
                </mxCell>
                <mxCell id="97" value="" style="rounded=0;whiteSpace=wrap;html=1;" parent="1" vertex="1">
                    <mxGeometry x="570" y="100" width="160" height="30" as="geometry"/>
                </mxCell>
                <mxCell id="98" value="" style="rounded=0;whiteSpace=wrap;html=1;" parent="1" vertex="1">
                    <mxGeometry x="570" y="130" width="160" height="30" as="geometry"/>
                </mxCell>
                <mxCell id="99" value="" style="rounded=0;whiteSpace=wrap;html=1;" parent="1" vertex="1">
                    <mxGeometry x="570" y="160" width="160" height="30" as="geometry"/>
                </mxCell>
                <mxCell id="100" value="" style="rounded=0;whiteSpace=wrap;html=1;" parent="1" vertex="1">
                    <mxGeometry x="570" y="190" width="160" height="30" as="geometry"/>
                </mxCell>
                <mxCell id="101" value="" style="rounded=0;whiteSpace=wrap;html=1;" parent="1" vertex="1">
                    <mxGeometry x="570" y="220" width="160" height="30" as="geometry"/>
                </mxCell>
                <mxCell id="102" value="" style="rounded=0;whiteSpace=wrap;html=1;" parent="1" vertex="1">
                    <mxGeometry x="570" y="250" width="160" height="30" as="geometry"/>
                </mxCell>
                <mxCell id="103" value="" style="rounded=0;whiteSpace=wrap;html=1;" parent="1" vertex="1">
                    <mxGeometry x="570" y="280" width="160" height="30" as="geometry"/>
                </mxCell>
                <mxCell id="104" value="" style="rounded=0;whiteSpace=wrap;html=1;" parent="1" vertex="1">
                    <mxGeometry x="570" y="310" width="160" height="30" as="geometry"/>
                </mxCell>
                <mxCell id="105" value="" style="rounded=0;whiteSpace=wrap;html=1;" parent="1" vertex="1">
                    <mxGeometry x="570" y="340" width="160" height="30" as="geometry"/>
                </mxCell>
                <mxCell id="106" value="" style="rounded=0;whiteSpace=wrap;html=1;" parent="1" vertex="1">
                    <mxGeometry x="570" y="370" width="160" height="30" as="geometry"/>
                </mxCell>
                <mxCell id="107" value="" style="rounded=0;whiteSpace=wrap;html=1;" parent="1" vertex="1">
                    <mxGeometry x="570" y="400" width="160" height="30" as="geometry"/>
                </mxCell>
                <mxCell id="108" value="" style="rounded=0;whiteSpace=wrap;html=1;" parent="1" vertex="1">
                    <mxGeometry x="570" y="430" width="160" height="30" as="geometry"/>
                </mxCell>
                <mxCell id="113" value="" style="rounded=0;whiteSpace=wrap;html=1;" parent="1" vertex="1">
                    <mxGeometry x="570" y="580" width="160" height="30" as="geometry"/>
                </mxCell>
                <mxCell id="114" value="" style="rounded=0;whiteSpace=wrap;html=1;" parent="1" vertex="1">
                    <mxGeometry x="570" y="610" width="160" height="30" as="geometry"/>
                </mxCell>
                <mxCell id="115" value="" style="rounded=0;whiteSpace=wrap;html=1;" parent="1" vertex="1">
                    <mxGeometry x="570" y="640" width="160" height="30" as="geometry"/>
                </mxCell>
                <mxCell id="116" value="" style="rounded=0;whiteSpace=wrap;html=1;" parent="1" vertex="1">
                    <mxGeometry x="570" y="670" width="160" height="30" as="geometry"/>
                </mxCell>
                <mxCell id="117" value="" style="rounded=0;whiteSpace=wrap;html=1;" parent="1" vertex="1">
                    <mxGeometry x="570" y="700" width="160" height="30" as="geometry"/>
                </mxCell>
                <mxCell id="118" value="" style="rounded=0;whiteSpace=wrap;html=1;" parent="1" vertex="1">
                    <mxGeometry x="570" y="730" width="160" height="30" as="geometry"/>
                </mxCell>
                <mxCell id="119" value="" style="rounded=0;whiteSpace=wrap;html=1;" parent="1" vertex="1">
                    <mxGeometry x="570" y="760" width="160" height="30" as="geometry"/>
                </mxCell>
                <mxCell id="120" value="" style="rounded=0;whiteSpace=wrap;html=1;" parent="1" vertex="1">
                    <mxGeometry x="570" y="790" width="160" height="30" as="geometry"/>
                </mxCell>
                <mxCell id="121" value="" style="rounded=0;whiteSpace=wrap;html=1;" parent="1" vertex="1">
                    <mxGeometry x="570" y="820" width="160" height="30" as="geometry"/>
                </mxCell>
                <mxCell id="122" value="" style="rounded=0;whiteSpace=wrap;html=1;fillColor=#f8cecc;strokeColor=#b85450;" parent="1" vertex="1">
                    <mxGeometry x="730" y="40" width="160" height="810" as="geometry"/>
                </mxCell>
                <mxCell id="123" value="Thursday" style="text;html=1;align=center;verticalAlign=middle;whiteSpace=wrap;rounded=0;" parent="1" vertex="1">
                    <mxGeometry x="780" y="10" width="60" height="30" as="geometry"/>
                </mxCell>
                <mxCell id="124" value="" style="rounded=0;whiteSpace=wrap;html=1;" parent="1" vertex="1">
                    <mxGeometry x="730" y="40" width="160" height="30" as="geometry"/>
                </mxCell>
                <mxCell id="125" value="" style="rounded=0;whiteSpace=wrap;html=1;" parent="1" vertex="1">
                    <mxGeometry x="730" y="70" width="160" height="30" as="geometry"/>
                </mxCell>
                <mxCell id="126" value="" style="rounded=0;whiteSpace=wrap;html=1;" parent="1" vertex="1">
                    <mxGeometry x="730" y="100" width="160" height="30" as="geometry"/>
                </mxCell>
                <mxCell id="127" value="" style="rounded=0;whiteSpace=wrap;html=1;" parent="1" vertex="1">
                    <mxGeometry x="730" y="130" width="160" height="30" as="geometry"/>
                </mxCell>
                <mxCell id="128" value="" style="rounded=0;whiteSpace=wrap;html=1;" parent="1" vertex="1">
                    <mxGeometry x="730" y="160" width="160" height="30" as="geometry"/>
                </mxCell>
                <mxCell id="129" value="" style="rounded=0;whiteSpace=wrap;html=1;" parent="1" vertex="1">
                    <mxGeometry x="730" y="190" width="160" height="30" as="geometry"/>
                </mxCell>
                <mxCell id="130" value="" style="rounded=0;whiteSpace=wrap;html=1;" parent="1" vertex="1">
                    <mxGeometry x="730" y="220" width="160" height="30" as="geometry"/>
                </mxCell>
                <mxCell id="131" value="" style="rounded=0;whiteSpace=wrap;html=1;" parent="1" vertex="1">
                    <mxGeometry x="730" y="250" width="160" height="30" as="geometry"/>
                </mxCell>
                <mxCell id="132" value="" style="rounded=0;whiteSpace=wrap;html=1;" parent="1" vertex="1">
                    <mxGeometry x="730" y="280" width="160" height="30" as="geometry"/>
                </mxCell>
                <mxCell id="133" value="" style="rounded=0;whiteSpace=wrap;html=1;" parent="1" vertex="1">
                    <mxGeometry x="730" y="310" width="160" height="30" as="geometry"/>
                </mxCell>
                <mxCell id="134" value="" style="rounded=0;whiteSpace=wrap;html=1;" parent="1" vertex="1">
                    <mxGeometry x="730" y="340" width="160" height="30" as="geometry"/>
                </mxCell>
                <mxCell id="135" value="" style="rounded=0;whiteSpace=wrap;html=1;" parent="1" vertex="1">
                    <mxGeometry x="730" y="370" width="160" height="30" as="geometry"/>
                </mxCell>
                <mxCell id="136" value="" style="rounded=0;whiteSpace=wrap;html=1;" parent="1" vertex="1">
                    <mxGeometry x="730" y="400" width="160" height="30" as="geometry"/>
                </mxCell>
                <mxCell id="143" value="" style="rounded=0;whiteSpace=wrap;html=1;" parent="1" vertex="1">
                    <mxGeometry x="730" y="610" width="160" height="30" as="geometry"/>
                </mxCell>
                <mxCell id="144" value="" style="rounded=0;whiteSpace=wrap;html=1;" parent="1" vertex="1">
                    <mxGeometry x="730" y="640" width="160" height="30" as="geometry"/>
                </mxCell>
                <mxCell id="145" value="" style="rounded=0;whiteSpace=wrap;html=1;" parent="1" vertex="1">
                    <mxGeometry x="730" y="670" width="160" height="30" as="geometry"/>
                </mxCell>
                <mxCell id="146" value="" style="rounded=0;whiteSpace=wrap;html=1;" parent="1" vertex="1">
                    <mxGeometry x="730" y="700" width="160" height="30" as="geometry"/>
                </mxCell>
                <mxCell id="147" value="" style="rounded=0;whiteSpace=wrap;html=1;" parent="1" vertex="1">
                    <mxGeometry x="730" y="730" width="160" height="30" as="geometry"/>
                </mxCell>
                <mxCell id="148" value="" style="rounded=0;whiteSpace=wrap;html=1;" parent="1" vertex="1">
                    <mxGeometry x="730" y="760" width="160" height="30" as="geometry"/>
                </mxCell>
                <mxCell id="149" value="" style="rounded=0;whiteSpace=wrap;html=1;" parent="1" vertex="1">
                    <mxGeometry x="730" y="790" width="160" height="30" as="geometry"/>
                </mxCell>
                <mxCell id="150" value="" style="rounded=0;whiteSpace=wrap;html=1;" parent="1" vertex="1">
                    <mxGeometry x="730" y="820" width="160" height="30" as="geometry"/>
                </mxCell>
                <mxCell id="151" value="" style="rounded=0;whiteSpace=wrap;html=1;fillColor=#f8cecc;strokeColor=#b85450;" parent="1" vertex="1">
                    <mxGeometry x="890" y="40" width="160" height="810" as="geometry"/>
                </mxCell>
                <mxCell id="152" value="Friday" style="text;html=1;align=center;verticalAlign=middle;whiteSpace=wrap;rounded=0;" parent="1" vertex="1">
                    <mxGeometry x="940" y="10" width="60" height="30" as="geometry"/>
                </mxCell>
                <mxCell id="153" value="" style="rounded=0;whiteSpace=wrap;html=1;" parent="1" vertex="1">
                    <mxGeometry x="890" y="40" width="160" height="30" as="geometry"/>
                </mxCell>
                <mxCell id="154" value="" style="rounded=0;whiteSpace=wrap;html=1;" parent="1" vertex="1">
                    <mxGeometry x="890" y="70" width="160" height="30" as="geometry"/>
                </mxCell>
                <mxCell id="155" value="" style="rounded=0;whiteSpace=wrap;html=1;" parent="1" vertex="1">
                    <mxGeometry x="890" y="100" width="160" height="30" as="geometry"/>
                </mxCell>
                <mxCell id="156" value="" style="rounded=0;whiteSpace=wrap;html=1;" parent="1" vertex="1">
                    <mxGeometry x="890" y="130" width="160" height="30" as="geometry"/>
                </mxCell>
                <mxCell id="157" value="" style="rounded=0;whiteSpace=wrap;html=1;" parent="1" vertex="1">
                    <mxGeometry x="890" y="160" width="160" height="30" as="geometry"/>
                </mxCell>
                <mxCell id="158" value="" style="rounded=0;whiteSpace=wrap;html=1;" parent="1" vertex="1">
                    <mxGeometry x="890" y="190" width="160" height="30" as="geometry"/>
                </mxCell>
                <mxCell id="159" value="" style="rounded=0;whiteSpace=wrap;html=1;" parent="1" vertex="1">
                    <mxGeometry x="890" y="220" width="160" height="30" as="geometry"/>
                </mxCell>
                <mxCell id="160" value="" style="rounded=0;whiteSpace=wrap;html=1;" parent="1" vertex="1">
                    <mxGeometry x="890" y="250" width="160" height="30" as="geometry"/>
                </mxCell>
                <mxCell id="161" value="" style="rounded=0;whiteSpace=wrap;html=1;" parent="1" vertex="1">
                    <mxGeometry x="890" y="280" width="160" height="30" as="geometry"/>
                </mxCell>
                <mxCell id="162" value="" style="rounded=0;whiteSpace=wrap;html=1;" parent="1" vertex="1">
                    <mxGeometry x="890" y="310" width="160" height="30" as="geometry"/>
                </mxCell>
                <mxCell id="163" value="" style="rounded=0;whiteSpace=wrap;html=1;" parent="1" vertex="1">
                    <mxGeometry x="890" y="340" width="160" height="30" as="geometry"/>
                </mxCell>
                <mxCell id="164" value="" style="rounded=0;whiteSpace=wrap;html=1;" parent="1" vertex="1">
                    <mxGeometry x="890" y="370" width="160" height="30" as="geometry"/>
                </mxCell>
                <mxCell id="165" value="" style="rounded=0;whiteSpace=wrap;html=1;" parent="1" vertex="1">
                    <mxGeometry x="890" y="400" width="160" height="30" as="geometry"/>
                </mxCell>
                <mxCell id="166" value="" style="rounded=0;whiteSpace=wrap;html=1;" parent="1" vertex="1">
                    <mxGeometry x="890" y="430" width="160" height="30" as="geometry"/>
                </mxCell>
                <mxCell id="171" value="" style="rounded=0;whiteSpace=wrap;html=1;" parent="1" vertex="1">
                    <mxGeometry x="890" y="580" width="160" height="30" as="geometry"/>
                </mxCell>
                <mxCell id="172" value="" style="rounded=0;whiteSpace=wrap;html=1;" parent="1" vertex="1">
                    <mxGeometry x="890" y="610" width="160" height="30" as="geometry"/>
                </mxCell>
                <mxCell id="173" value="" style="rounded=0;whiteSpace=wrap;html=1;" parent="1" vertex="1">
                    <mxGeometry x="890" y="640" width="160" height="30" as="geometry"/>
                </mxCell>
                <mxCell id="174" value="" style="rounded=0;whiteSpace=wrap;html=1;" parent="1" vertex="1">
                    <mxGeometry x="890" y="670" width="160" height="30" as="geometry"/>
                </mxCell>
                <mxCell id="175" value="" style="rounded=0;whiteSpace=wrap;html=1;" parent="1" vertex="1">
                    <mxGeometry x="890" y="700" width="160" height="30" as="geometry"/>
                </mxCell>
                <mxCell id="176" value="" style="rounded=0;whiteSpace=wrap;html=1;" parent="1" vertex="1">
                    <mxGeometry x="890" y="730" width="160" height="30" as="geometry"/>
                </mxCell>
                <mxCell id="177" value="" style="rounded=0;whiteSpace=wrap;html=1;" parent="1" vertex="1">
                    <mxGeometry x="890" y="760" width="160" height="30" as="geometry"/>
                </mxCell>
                <mxCell id="178" value="" style="rounded=0;whiteSpace=wrap;html=1;" parent="1" vertex="1">
                    <mxGeometry x="890" y="790" width="160" height="30" as="geometry"/>
                </mxCell>
                <mxCell id="179" value="" style="rounded=0;whiteSpace=wrap;html=1;" parent="1" vertex="1">
                    <mxGeometry x="890" y="820" width="160" height="30" as="geometry"/>
                </mxCell>
                <mxCell id="180" value="" style="rounded=0;whiteSpace=wrap;html=1;" parent="1" vertex="1">
                    <mxGeometry x="1050" y="40" width="160" height="810" as="geometry"/>
                </mxCell>
                <mxCell id="181" value="Saturday" style="text;html=1;align=center;verticalAlign=middle;whiteSpace=wrap;rounded=0;" parent="1" vertex="1">
                    <mxGeometry x="1100" y="10" width="60" height="30" as="geometry"/>
                </mxCell>
                <mxCell id="182" value="" style="rounded=0;whiteSpace=wrap;html=1;" parent="1" vertex="1">
                    <mxGeometry x="1050" y="40" width="160" height="30" as="geometry"/>
                </mxCell>
                <mxCell id="183" value="" style="rounded=0;whiteSpace=wrap;html=1;" parent="1" vertex="1">
                    <mxGeometry x="1050" y="70" width="160" height="30" as="geometry"/>
                </mxCell>
                <mxCell id="184" value="" style="rounded=0;whiteSpace=wrap;html=1;" parent="1" vertex="1">
                    <mxGeometry x="1050" y="100" width="160" height="30" as="geometry"/>
                </mxCell>
                <mxCell id="185" value="" style="rounded=0;whiteSpace=wrap;html=1;" parent="1" vertex="1">
                    <mxGeometry x="1050" y="130" width="160" height="30" as="geometry"/>
                </mxCell>
                <mxCell id="186" value="" style="rounded=0;whiteSpace=wrap;html=1;" parent="1" vertex="1">
                    <mxGeometry x="1050" y="160" width="160" height="30" as="geometry"/>
                </mxCell>
                <mxCell id="187" value="" style="rounded=0;whiteSpace=wrap;html=1;" parent="1" vertex="1">
                    <mxGeometry x="1050" y="190" width="160" height="30" as="geometry"/>
                </mxCell>
                <mxCell id="188" value="" style="rounded=0;whiteSpace=wrap;html=1;" parent="1" vertex="1">
                    <mxGeometry x="1050" y="220" width="160" height="30" as="geometry"/>
                </mxCell>
                <mxCell id="189" value="" style="rounded=0;whiteSpace=wrap;html=1;" parent="1" vertex="1">
                    <mxGeometry x="1050" y="250" width="160" height="30" as="geometry"/>
                </mxCell>
                <mxCell id="190" value="" style="rounded=0;whiteSpace=wrap;html=1;" parent="1" vertex="1">
                    <mxGeometry x="1050" y="280" width="160" height="30" as="geometry"/>
                </mxCell>
                <mxCell id="191" value="" style="rounded=0;whiteSpace=wrap;html=1;" parent="1" vertex="1">
                    <mxGeometry x="1050" y="310" width="160" height="30" as="geometry"/>
                </mxCell>
                <mxCell id="192" value="" style="rounded=0;whiteSpace=wrap;html=1;" parent="1" vertex="1">
                    <mxGeometry x="1050" y="340" width="160" height="30" as="geometry"/>
                </mxCell>
                <mxCell id="193" value="" style="rounded=0;whiteSpace=wrap;html=1;" parent="1" vertex="1">
                    <mxGeometry x="1050" y="370" width="160" height="30" as="geometry"/>
                </mxCell>
                <mxCell id="194" value="" style="rounded=0;whiteSpace=wrap;html=1;" parent="1" vertex="1">
                    <mxGeometry x="1050" y="400" width="160" height="30" as="geometry"/>
                </mxCell>
                <mxCell id="195" value="" style="rounded=0;whiteSpace=wrap;html=1;" parent="1" vertex="1">
                    <mxGeometry x="1050" y="430" width="160" height="30" as="geometry"/>
                </mxCell>
                <mxCell id="196" value="" style="rounded=0;whiteSpace=wrap;html=1;" parent="1" vertex="1">
                    <mxGeometry x="1050" y="460" width="160" height="30" as="geometry"/>
                </mxCell>
                <mxCell id="197" value="" style="rounded=0;whiteSpace=wrap;html=1;" parent="1" vertex="1">
                    <mxGeometry x="1050" y="490" width="160" height="30" as="geometry"/>
                </mxCell>
                <mxCell id="198" value="" style="rounded=0;whiteSpace=wrap;html=1;" parent="1" vertex="1">
                    <mxGeometry x="1050" y="520" width="160" height="30" as="geometry"/>
                </mxCell>
                <mxCell id="199" value="" style="rounded=0;whiteSpace=wrap;html=1;" parent="1" vertex="1">
                    <mxGeometry x="1050" y="550" width="160" height="30" as="geometry"/>
                </mxCell>
                <mxCell id="200" value="" style="rounded=0;whiteSpace=wrap;html=1;" parent="1" vertex="1">
                    <mxGeometry x="1050" y="580" width="160" height="30" as="geometry"/>
                </mxCell>
                <mxCell id="201" value="" style="rounded=0;whiteSpace=wrap;html=1;" parent="1" vertex="1">
                    <mxGeometry x="1050" y="610" width="160" height="30" as="geometry"/>
                </mxCell>
                <mxCell id="202" value="" style="rounded=0;whiteSpace=wrap;html=1;" parent="1" vertex="1">
                    <mxGeometry x="1050" y="640" width="160" height="30" as="geometry"/>
                </mxCell>
                <mxCell id="203" value="" style="rounded=0;whiteSpace=wrap;html=1;" parent="1" vertex="1">
                    <mxGeometry x="1050" y="670" width="160" height="30" as="geometry"/>
                </mxCell>
                <mxCell id="204" value="" style="rounded=0;whiteSpace=wrap;html=1;" parent="1" vertex="1">
                    <mxGeometry x="1050" y="700" width="160" height="30" as="geometry"/>
                </mxCell>
                <mxCell id="205" value="" style="rounded=0;whiteSpace=wrap;html=1;" parent="1" vertex="1">
                    <mxGeometry x="1050" y="730" width="160" height="30" as="geometry"/>
                </mxCell>
                <mxCell id="206" value="" style="rounded=0;whiteSpace=wrap;html=1;" parent="1" vertex="1">
                    <mxGeometry x="1050" y="760" width="160" height="30" as="geometry"/>
                </mxCell>
                <mxCell id="207" value="" style="rounded=0;whiteSpace=wrap;html=1;" parent="1" vertex="1">
                    <mxGeometry x="1050" y="790" width="160" height="30" as="geometry"/>
                </mxCell>
                <mxCell id="208" value="" style="rounded=0;whiteSpace=wrap;html=1;" parent="1" vertex="1">
                    <mxGeometry x="1050" y="820" width="160" height="30" as="geometry"/>
                </mxCell>
                <mxCell id="209" value="9:00 AM - 9:30 AM" style="rounded=0;whiteSpace=wrap;html=1;" parent="1" vertex="1">
                    <mxGeometry x="100" y="130" width="150" height="30" as="geometry"/>
                </mxCell>
                <mxCell id="210" value="9:30 AM - 10:00 AM" style="rounded=0;whiteSpace=wrap;html=1;" parent="1" vertex="1">
                    <mxGeometry x="100" y="160" width="150" height="30" as="geometry"/>
                </mxCell>
                <mxCell id="211" value="" style="rounded=0;whiteSpace=wrap;html=1;" parent="1" vertex="1">
                    <mxGeometry x="250" y="100" width="160" height="30" as="geometry"/>
                </mxCell>
                <mxCell id="212" value="Audrey" style="rounded=0;whiteSpace=wrap;html=1;textDirection=vertical-lr;fillColor=#dae8fc;strokeColor=#6c8ebf;" parent="1" vertex="1">
                    <mxGeometry x="100" y="890" width="40" height="90" as="geometry"/>
                </mxCell>
                <mxCell id="213" value="Cody" style="rounded=0;whiteSpace=wrap;html=1;textDirection=vertical-lr;fillColor=#e1d5e7;strokeColor=#9673a6;" parent="1" vertex="1">
                    <mxGeometry x="180" y="890" width="40" height="90" as="geometry"/>
                </mxCell>
                <mxCell id="214" value="Mateo" style="rounded=0;whiteSpace=wrap;html=1;textDirection=vertical-lr;fillColor=#fff2cc;strokeColor=#d6b656;" parent="1" vertex="1">
                    <mxGeometry x="270" y="890" width="40" height="90" as="geometry"/>
                </mxCell>
                <mxCell id="215" value="Taft" style="rounded=0;whiteSpace=wrap;html=1;textDirection=vertical-lr;fillColor=#d5e8d4;strokeColor=#82b366;" parent="1" vertex="1">
                    <mxGeometry x="530" y="610" width="40" height="75" as="geometry"/>
                </mxCell>
                <mxCell id="221" value="Audrey" style="rounded=0;whiteSpace=wrap;html=1;textDirection=vertical-lr;fillColor=#dae8fc;strokeColor=#6c8ebf;" parent="1" vertex="1">
                    <mxGeometry x="250" y="340" width="40" height="120" as="geometry"/>
                </mxCell>
                <mxCell id="222" value="Audrey" style="rounded=0;whiteSpace=wrap;html=1;textDirection=vertical-lr;fillColor=#dae8fc;strokeColor=#6c8ebf;" parent="1" vertex="1">
                    <mxGeometry x="250" y="580" width="40" height="90" as="geometry"/>
                </mxCell>
                <mxCell id="223" value="Audrey" style="rounded=0;whiteSpace=wrap;html=1;textDirection=vertical-lr;fillColor=#dae8fc;strokeColor=#6c8ebf;" parent="1" vertex="1">
                    <mxGeometry x="570" y="580" width="40" height="90" as="geometry"/>
                </mxCell>
                <mxCell id="224" value="Audrey" style="rounded=0;whiteSpace=wrap;html=1;textDirection=vertical-lr;fillColor=#dae8fc;strokeColor=#6c8ebf;" parent="1" vertex="1">
                    <mxGeometry x="570" y="340" width="40" height="120" as="geometry"/>
                </mxCell>
                <mxCell id="225" value="Audrey" style="rounded=0;whiteSpace=wrap;html=1;textDirection=vertical-lr;fillColor=#dae8fc;strokeColor=#6c8ebf;" parent="1" vertex="1">
                    <mxGeometry x="410" y="610" width="40" height="75" as="geometry"/>
                </mxCell>
                <mxCell id="226" value="Audrey" style="rounded=0;whiteSpace=wrap;html=1;textDirection=vertical-lr;fillColor=#dae8fc;strokeColor=#6c8ebf;" parent="1" vertex="1">
                    <mxGeometry x="730" y="610" width="40" height="75" as="geometry"/>
                </mxCell>
                <mxCell id="227" value="Audrey" style="rounded=0;whiteSpace=wrap;html=1;textDirection=vertical-lr;fillColor=#dae8fc;strokeColor=#6c8ebf;" parent="1" vertex="1">
                    <mxGeometry x="890" y="340" width="40" height="120" as="geometry"/>
                </mxCell>
                <mxCell id="228" value="Audrey" style="rounded=0;whiteSpace=wrap;html=1;fillColor=#dae8fc;strokeColor=#6c8ebf;" parent="1" vertex="1">
                    <mxGeometry x="410" y="310" width="40" height="120" as="geometry"/>
                </mxCell>
                <mxCell id="229" value="Audrey" style="rounded=0;whiteSpace=wrap;html=1;fillColor=#dae8fc;strokeColor=#6c8ebf;" parent="1" vertex="1">
                    <mxGeometry x="730" y="310" width="40" height="120" as="geometry"/>
                </mxCell>
                <mxCell id="230" value="Cody" style="rounded=0;whiteSpace=wrap;html=1;textDirection=vertical-lr;fillColor=#e1d5e7;strokeColor=#9673a6;" parent="1" vertex="1">
                    <mxGeometry x="290" y="580" width="40" height="90" as="geometry"/>
                </mxCell>
                <mxCell id="231" value="Cody" style="rounded=0;whiteSpace=wrap;html=1;textDirection=vertical-lr;fillColor=#e1d5e7;strokeColor=#9673a6;" parent="1" vertex="1">
                    <mxGeometry x="610" y="580" width="40" height="90" as="geometry"/>
                </mxCell>
                <mxCell id="232" value="Mateo" style="rounded=0;whiteSpace=wrap;html=1;textDirection=vertical-lr;fillColor=#fff2cc;strokeColor=#d6b656;" parent="1" vertex="1">
                    <mxGeometry x="330" y="580" width="40" height="90" as="geometry"/>
                </mxCell>
                <mxCell id="233" value="Mateo" style="rounded=0;whiteSpace=wrap;html=1;textDirection=vertical-lr;fillColor=#fff2cc;strokeColor=#d6b656;" parent="1" vertex="1">
                    <mxGeometry x="650" y="580" width="40" height="90" as="geometry"/>
                </mxCell>
                <mxCell id="234" value="Taft" style="rounded=0;whiteSpace=wrap;html=1;textDirection=vertical-lr;fillColor=#d5e8d4;strokeColor=#82b366;" parent="1" vertex="1">
                    <mxGeometry x="370" y="580" width="40" height="90" as="geometry"/>
                </mxCell>
                <mxCell id="235" value="Taft" style="rounded=0;whiteSpace=wrap;html=1;textDirection=vertical-lr;fillColor=#d5e8d4;strokeColor=#82b366;" parent="1" vertex="1">
                    <mxGeometry x="690" y="580" width="40" height="90" as="geometry"/>
                </mxCell>
                <mxCell id="236" value="Cody" style="rounded=0;whiteSpace=wrap;html=1;textDirection=vertical-lr;fillColor=#e1d5e7;strokeColor=#9673a6;" parent="1" vertex="1">
                    <mxGeometry x="290" y="340" width="40" height="120" as="geometry"/>
                </mxCell>
                <mxCell id="237" value="Cody" style="rounded=0;whiteSpace=wrap;html=1;textDirection=vertical-lr;fillColor=#e1d5e7;strokeColor=#9673a6;" parent="1" vertex="1">
                    <mxGeometry x="610" y="340" width="40" height="120" as="geometry"/>
                </mxCell>
                <mxCell id="238" value="Cody" style="rounded=0;whiteSpace=wrap;html=1;textDirection=vertical-lr;fillColor=#e1d5e7;strokeColor=#9673a6;" parent="1" vertex="1">
                    <mxGeometry x="930" y="340" width="40" height="120" as="geometry"/>
                </mxCell>
                <mxCell id="239" value="Cody" style="rounded=0;whiteSpace=wrap;html=1;fillColor=#e1d5e7;strokeColor=#9673a6;textDirection=vertical-lr;" parent="1" vertex="1">
                    <mxGeometry x="450" y="130" width="40" height="300" as="geometry"/>
                </mxCell>
                <mxCell id="240" value="Cody" style="rounded=0;whiteSpace=wrap;html=1;fillColor=#e1d5e7;strokeColor=#9673a6;textDirection=vertical-lr;" parent="1" vertex="1">
                    <mxGeometry x="770" y="130" width="40" height="300" as="geometry"/>
                </mxCell>
                <mxCell id="241" value="Mateo" style="rounded=0;whiteSpace=wrap;html=1;textDirection=vertical-lr;fillColor=#fff2cc;strokeColor=#d6b656;" parent="1" vertex="1">
                    <mxGeometry x="330" y="400" width="40" height="60" as="geometry"/>
                </mxCell>
                <mxCell id="242" value="Mateo" style="rounded=0;whiteSpace=wrap;html=1;textDirection=vertical-lr;fillColor=#fff2cc;strokeColor=#d6b656;" parent="1" vertex="1">
                    <mxGeometry x="650" y="400" width="40" height="60" as="geometry"/>
                </mxCell>
                <mxCell id="243" value="Mateo" style="rounded=0;whiteSpace=wrap;html=1;textDirection=vertical-lr;fillColor=#fff2cc;strokeColor=#d6b656;" parent="1" vertex="1">
                    <mxGeometry x="970" y="400" width="40" height="60" as="geometry"/>
                </mxCell>
                <mxCell id="244" value="Cody" style="rounded=0;whiteSpace=wrap;html=1;textDirection=vertical-lr;fillColor=#e1d5e7;strokeColor=#9673a6;" parent="1" vertex="1">
                    <mxGeometry x="450" y="610" width="40" height="75" as="geometry"/>
                </mxCell>
                <mxCell id="245" value="Cody" style="rounded=0;whiteSpace=wrap;html=1;textDirection=vertical-lr;fillColor=#e1d5e7;strokeColor=#9673a6;" parent="1" vertex="1">
                    <mxGeometry x="770" y="610" width="40" height="75" as="geometry"/>
                </mxCell>
                <mxCell id="246" value="Mateo" style="rounded=0;whiteSpace=wrap;html=1;textDirection=vertical-lr;fillColor=#fff2cc;strokeColor=#d6b656;" parent="1" vertex="1">
                    <mxGeometry x="490" y="610" width="40" height="75" as="geometry"/>
                </mxCell>
                <mxCell id="247" value="Mateo" style="rounded=0;whiteSpace=wrap;html=1;textDirection=vertical-lr;fillColor=#fff2cc;strokeColor=#d6b656;" parent="1" vertex="1">
                    <mxGeometry x="810" y="610" width="40" height="75" as="geometry"/>
                </mxCell>
                <mxCell id="248" value="Mateo" style="rounded=0;whiteSpace=wrap;html=1;fillColor=#fff2cc;strokeColor=#d6b656;" parent="1" vertex="1">
                    <mxGeometry x="490" y="400" width="40" height="30" as="geometry"/>
                </mxCell>
                <mxCell id="249" value="Mateo" style="rounded=0;whiteSpace=wrap;html=1;fillColor=#fff2cc;strokeColor=#d6b656;" parent="1" vertex="1">
                    <mxGeometry x="810" y="400" width="40" height="30" as="geometry"/>
                </mxCell>
                <mxCell id="250" value="Taft" style="rounded=0;whiteSpace=wrap;html=1;textDirection=vertical-lr;fillColor=#d5e8d4;strokeColor=#82b366;" parent="1" vertex="1">
                    <mxGeometry x="850" y="610" width="40" height="75" as="geometry"/>
                </mxCell>
                <mxCell id="251" value="Taft" style="rounded=0;whiteSpace=wrap;html=1;textDirection=vertical-lr;fillColor=#d5e8d4;strokeColor=#82b366;" parent="1" vertex="1">
                    <mxGeometry x="370" y="400" width="40" height="60" as="geometry"/>
                </mxCell>
                <mxCell id="252" value="Taft" style="rounded=0;whiteSpace=wrap;html=1;textDirection=vertical-lr;fillColor=#d5e8d4;strokeColor=#82b366;" parent="1" vertex="1">
                    <mxGeometry x="690" y="400" width="40" height="60" as="geometry"/>
                </mxCell>
                <mxCell id="253" value="Taft" style="rounded=0;whiteSpace=wrap;html=1;textDirection=vertical-lr;fillColor=#d5e8d4;strokeColor=#82b366;" parent="1" vertex="1">
                    <mxGeometry x="1010" y="400" width="40" height="60" as="geometry"/>
                </mxCell>
                <mxCell id="254" value="Taft" style="rounded=0;whiteSpace=wrap;html=1;fillColor=#d5e8d4;strokeColor=#82b366;" parent="1" vertex="1">
                    <mxGeometry x="530" y="400" width="40" height="30" as="geometry"/>
                </mxCell>
                <mxCell id="255" value="Taft" style="rounded=0;whiteSpace=wrap;html=1;fillColor=#d5e8d4;strokeColor=#82b366;" parent="1" vertex="1">
                    <mxGeometry x="850" y="400" width="40" height="30" as="geometry"/>
                </mxCell>
            </root>
        </mxGraphModel>
    </diagram>
</mxfile>